<svg width="24" height="24" viewBox="0 0 24 24" fill="none" xmlns="http://www.w3.org/2000/svg">
<path fill-rule="evenodd" clip-rule="evenodd" d="M12 18C12.1989 18 12.3896 17.921 12.5303 17.7803C12.671 17.6397 12.75 17.4489 12.75 17.25V8.56051L15.969 11.781C16.0387 11.8507 16.1215 11.9061 16.2126 11.9438C16.3037 11.9815 16.4014 12.001 16.5 12.001C16.5986 12.001 16.6962 11.9815 16.7873 11.9438C16.8785 11.9061 16.9612 11.8507 17.031 11.781C17.1007 11.7113 17.156 11.6285 17.1938 11.5374C17.2315 11.4463 17.2509 11.3486 17.2509 11.25C17.2509 11.1514 17.2315 11.0537 17.1938 10.9626C17.156 10.8715 17.1007 10.7887 17.031 10.719L12.531 6.21901C12.4613 6.14917 12.3785 6.09375 12.2874 6.05594C12.1963 6.01813 12.0986 5.99867 12 5.99867C11.9013 5.99867 11.8036 6.01813 11.7125 6.05594C11.6214 6.09375 11.5386 6.14917 11.469 6.21901L6.96897 10.719C6.82814 10.8598 6.74902 11.0508 6.74902 11.25C6.74902 11.4492 6.82814 11.6402 6.96897 11.781C7.1098 11.9218 7.30081 12.001 7.49997 12.001C7.69913 12.001 7.89014 11.9218 8.03097 11.781L11.25 8.56051V17.25C11.25 17.4489 11.329 17.6397 11.4696 17.7803C11.6103 17.921 11.8011 18 12 18Z" fill="white"/>
</svg>
