<svg width="34" height="32" viewBox="0 0 34 32" fill="none" xmlns="http://www.w3.org/2000/svg">
<path d="M1.28571 0H9V32H1.28571C0.944722 32 0.617694 31.8595 0.376576 31.6095C0.135458 31.3594 0 31.0203 0 30.6667V1.33333C0 0.979711 0.135458 0.640572 0.376576 0.390523C0.617694 0.140475 0.944722 0 1.28571 0Z" fill="#7C3AED"/>
<path d="M23.2857 0H31V32H23.2857C22.9447 32 22.6177 31.8595 22.3766 31.6095C22.1355 31.3594 22 31.0203 22 30.6667V1.33333C22 0.979711 22.1355 0.640572 22.3766 0.390523C22.6177 0.140475 22.9447 0 23.2857 0Z" fill="#7C3AED"/>
<path d="M11 0H18.7143C19.0553 0 19.3823 0.140475 19.6234 0.390523C19.8645 0.640572 20 0.979711 20 1.33333V30.6667C20 31.0203 19.8645 31.3594 19.6234 31.6095C19.3823 31.8595 19.0553 32 18.7143 32H11V0Z" fill="#0AC05E"/>
</svg>
