<svg width="32" height="32" viewBox="0 0 32 32" fill="none" xmlns="http://www.w3.org/2000/svg">
<path d="M30.6666 8.00001V2.66668C30.6666 2.31305 30.5262 1.97392 30.2761 1.72387C30.0261 1.47382 29.6869 1.33334 29.3333 1.33334H2.66665C2.31302 1.33334 1.97388 1.47382 1.72384 1.72387C1.47379 1.97392 1.33331 2.31305 1.33331 2.66668V8.00001H30.6666Z" fill="#0AC05E"/>
<path d="M1.33331 10.6667V29.3334C1.33331 29.687 1.47379 30.0261 1.72384 30.2762C1.97388 30.5262 2.31302 30.6667 2.66665 30.6667H9.33331V10.6667H1.33331Z" fill="#C4B5FD"/>
<path d="M12 30.6667H29.3333C29.687 30.6667 30.0261 30.5262 30.2761 30.2762C30.5262 30.0261 30.6667 29.687 30.6667 29.3334V10.6667H12V30.6667Z" fill="#7C3AED"/>
</svg>
