<svg width="44" height="45" viewBox="0 0 44 45" fill="none" xmlns="http://www.w3.org/2000/svg">
<path d="M29 20.7647C29 23.6109 25.4774 28.3245 23.43 30.8238C22.6809 31.7382 21.3191 31.7382 20.57 30.8238C18.5226 28.3245 15 23.6109 15 20.7647C15 16.7525 18.134 13.5 22 13.5C25.866 13.5 29 16.7525 29 20.7647Z" stroke="#0AC05E" stroke-width="1.25" stroke-linecap="round"/>
<path d="M24.6004 20.5C24.6004 21.9359 23.4363 23.1 22.0004 23.1C20.5645 23.1 19.4004 21.9359 19.4004 20.5C19.4004 19.064 20.5645 17.8999 22.0004 17.8999C23.4363 17.8999 24.6004 19.064 24.6004 20.5Z" stroke="#0AC05E" stroke-width="1.25" stroke-linecap="round"/>
</svg>
