<svg width="88" height="42" viewBox="0 0 88 42" fill="none" xmlns="http://www.w3.org/2000/svg">
<path d="M20.344 16.7351L31.1943 9.05861L21.8119 3.59976M15.3295 25.4351L5.77649 20.1469V27.141L1 30.5528V11.4469L35.6296 30.5528V11.788L30.5119 15.3704V22.5351L6.28826 8.71743L14.9883 3.59976M15.3295 25.4351L30.1707 33.6234C30.1707 33.6234 25.291 36.7205 21.6413 38.7411M15.3295 25.4351L5.60591 33.1116C5.60591 33.1116 11.4401 36.6423 15.1589 38.8195" stroke="#0AC05E" stroke-linecap="round"/>
<path d="M10.2116 29.5299C10.621 30.0758 14.8744 32.4868 16.8646 33.7946M24.7117 30.724L19.9352 33.7946" stroke="#0AC05E"/>
<path d="M16.8651 8.20544L11.2357 11.4466M20.2769 8.03485L26.5887 12.2996" stroke="#0AC05E"/>
<path d="M21.9939 4.9644C21.9939 6.94938 20.3848 8.55853 18.3998 8.55853C16.4148 8.55853 14.8057 6.94938 14.8057 4.9644C14.8057 2.97942 16.4148 1.37027 18.3998 1.37027C20.3848 1.37027 21.9939 2.97942 21.9939 4.9644Z" stroke="#0AC05E"/>
<path d="M21.9939 37.0356C21.9939 39.0206 20.3848 40.6297 18.3998 40.6297C16.4148 40.6297 14.8057 39.0206 14.8057 37.0356C14.8057 35.0506 16.4148 33.4415 18.3998 33.4415C20.3848 33.4415 21.9939 35.0506 21.9939 37.0356Z" stroke="#0AC05E"/>
<path d="M50.9684 12.1542V24.5179H48.7105L43.3316 16.7362H43.2411V24.5179H40.6271V12.1542H42.9211L48.2578 19.9298H48.3664V12.1542H50.9684ZM64.4896 18.336C64.4896 19.6843 64.234 20.8313 63.7229 21.7771C63.2158 22.7229 62.5235 23.4453 61.6462 23.9443C60.7728 24.4394 59.7908 24.6869 58.7002 24.6869C57.6014 24.6869 56.6154 24.4374 55.7421 23.9383C54.8687 23.4393 54.1785 22.7168 53.6714 21.771C53.1643 20.8253 52.9107 19.6803 52.9107 18.336C52.9107 16.9878 53.1643 15.8408 53.6714 14.895C54.1785 13.9492 54.8687 13.2288 55.7421 12.7338C56.6154 12.2347 57.6014 11.9852 58.7002 11.9852C59.7908 11.9852 60.7728 12.2347 61.6462 12.7338C62.5235 13.2288 63.2158 13.9492 63.7229 14.895C64.234 15.8408 64.4896 16.9878 64.4896 18.336ZM61.8394 18.336C61.8394 17.4627 61.7086 16.7262 61.447 16.1265C61.1894 15.5268 60.8252 15.0721 60.3543 14.7622C59.8834 14.4523 59.332 14.2973 58.7002 14.2973C58.0683 14.2973 57.5169 14.4523 57.046 14.7622C56.5752 15.0721 56.2089 15.5268 55.9473 16.1265C55.6897 16.7262 55.561 17.4627 55.561 18.336C55.561 19.2094 55.6897 19.9459 55.9473 20.5456C56.2089 21.1452 56.5752 21.6 57.046 21.9099C57.5169 22.2198 58.0683 22.3747 58.7002 22.3747C59.332 22.3747 59.8834 22.2198 60.3543 21.9099C60.8252 21.6 61.1894 21.1452 61.447 20.5456C61.7086 19.9459 61.8394 19.2094 61.8394 18.336ZM68.2959 12.1542L70.7891 16.368H70.8857L73.391 12.1542H76.3431L72.57 18.336L76.4276 24.5179H73.4212L70.8857 20.298H70.7891L68.2536 24.5179H65.2593L69.129 18.336L65.3317 12.1542H68.2959Z" fill="#526D64"/>
<path d="M44.6022 30.7328H43.9417C43.9027 30.5429 43.8343 30.376 43.7366 30.2321C43.6408 30.0883 43.5236 29.9676 43.3851 29.8699C43.2484 29.7705 43.0966 29.6959 42.9297 29.6462C42.7627 29.5965 42.5887 29.5716 42.4076 29.5716C42.0774 29.5716 41.7782 29.6551 41.5101 29.822C41.2437 29.9889 41.0316 30.2348 40.8735 30.5597C40.7173 30.8847 40.6392 31.2833 40.6392 31.7556C40.6392 32.2279 40.7173 32.6265 40.8735 32.9514C41.0316 33.2764 41.2437 33.5223 41.5101 33.6892C41.7782 33.8561 42.0774 33.9395 42.4076 33.9395C42.5887 33.9395 42.7627 33.9147 42.9297 33.865C43.0966 33.8152 43.2484 33.7415 43.3851 33.6439C43.5236 33.5445 43.6408 33.4228 43.7366 33.279C43.8343 33.1334 43.9027 32.9665 43.9417 32.7783H44.6022C44.5525 33.0571 44.462 33.3065 44.3306 33.5267C44.1992 33.7469 44.0358 33.9342 43.8405 34.0887C43.6452 34.2414 43.4259 34.3577 43.1827 34.4376C42.9412 34.5175 42.6828 34.5574 42.4076 34.5574C41.9424 34.5574 41.5287 34.4438 41.1665 34.2165C40.8043 33.9892 40.5193 33.6661 40.3116 33.2471C40.1038 32.828 40 32.3309 40 31.7556C40 31.1803 40.1038 30.6831 40.3116 30.2641C40.5193 29.8451 40.8043 29.5219 41.1665 29.2946C41.5287 29.0674 41.9424 28.9537 42.4076 28.9537C42.6828 28.9537 42.9412 28.9937 43.1827 29.0736C43.4259 29.1535 43.6452 29.2707 43.8405 29.4251C44.0358 29.5778 44.1992 29.7643 44.3306 29.9844C44.462 30.2028 44.5525 30.4523 44.6022 30.7328ZM45.6696 34.4828V29.0283H47.5126C47.9388 29.0283 48.2885 29.1011 48.562 29.2467C48.8354 29.3905 49.0378 29.5885 49.1692 29.8406C49.3006 30.0928 49.3663 30.3795 49.3663 30.7009C49.3663 31.0223 49.3006 31.3072 49.1692 31.5558C49.0378 31.8044 48.8363 31.9997 48.5646 32.1418C48.293 32.282 47.9459 32.3522 47.5233 32.3522H46.0318V31.7556H47.502C47.7932 31.7556 48.0275 31.713 48.2051 31.6277C48.3844 31.5425 48.514 31.4218 48.5939 31.2655C48.6756 31.1075 48.7165 30.9193 48.7165 30.7009C48.7165 30.4825 48.6756 30.2916 48.5939 30.1283C48.5123 29.9649 48.3818 29.8389 48.2024 29.7501C48.0231 29.6595 47.7861 29.6142 47.4913 29.6142H46.3301V34.4828H45.6696ZM48.237 32.0326L49.5794 34.4828H48.8123L47.4913 32.0326H48.237ZM50.4669 34.4828V29.0283H53.7588V29.6142H51.1274V31.4573H53.5884V32.0432H51.1274V33.8969H53.8015V34.4828H50.4669ZM55.1731 34.4828H54.4806L56.4835 29.0283H57.1653L59.1681 34.4828H58.4756L56.8457 29.8912H56.8031L55.1731 34.4828ZM55.4288 32.3522H58.22V32.9381H55.4288V32.3522ZM59.0822 29.6142V29.0283H63.1731V29.6142H61.4579V34.4828H60.7974V29.6142H59.0822ZM64.853 29.0283V34.4828H64.1925V29.0283H64.853ZM70.7797 31.7556C70.7797 32.3309 70.6758 32.828 70.468 33.2471C70.2603 33.6661 69.9753 33.9892 69.6131 34.2165C69.2509 34.4438 68.8372 34.5574 68.372 34.5574C67.9068 34.5574 67.4931 34.4438 67.1309 34.2165C66.7687 33.9892 66.4837 33.6661 66.2759 33.2471C66.0682 32.828 65.9643 32.3309 65.9643 31.7556C65.9643 31.1803 66.0682 30.6831 66.2759 30.2641C66.4837 29.8451 66.7687 29.5219 67.1309 29.2946C67.4931 29.0674 67.9068 28.9537 68.372 28.9537C68.8372 28.9537 69.2509 29.0674 69.6131 29.2946C69.9753 29.5219 70.2603 29.8451 70.468 30.2641C70.6758 30.6831 70.7797 31.1803 70.7797 31.7556ZM70.1405 31.7556C70.1405 31.2833 70.0614 30.8847 69.9034 30.5597C69.7472 30.2348 69.535 29.9889 69.2669 29.822C69.0005 29.6551 68.7022 29.5716 68.372 29.5716C68.0417 29.5716 67.7426 29.6551 67.4744 29.822C67.2081 29.9889 66.9959 30.2348 66.8379 30.5597C66.6816 30.8847 66.6035 31.2833 66.6035 31.7556C66.6035 32.2279 66.6816 32.6265 66.8379 32.9514C66.9959 33.2764 67.2081 33.5223 67.4744 33.6892C67.7426 33.8561 68.0417 33.9395 68.372 33.9395C68.7022 33.9395 69.0005 33.8561 69.2669 33.6892C69.535 33.5223 69.7472 33.2764 69.9034 32.9514C70.0614 32.6265 70.1405 32.2279 70.1405 31.7556ZM76.2156 29.0283V34.4828H75.5764L72.6041 30.2002H72.5508V34.4828H71.8903V29.0283H72.5295L75.5124 33.3216H75.5657V29.0283H76.2156Z" fill="#526D64"/>
</svg>